<svg width="343" height="42" xmlns="http://www.w3.org/2000/svg"><path d="M199.897 32.63h2.551V.41h-2.551v32.22zm19.363-2.057c-4.722 0-8.324-3.558-8.324-8.458s3.602-8.48 8.324-8.48c4.744 0 8.346 3.58 8.346 8.48s-3.602 8.458-8.346 8.458zm0-19.332c-6.243 0-10.919 4.676-10.919 10.874 0 6.176 4.676 10.852 10.919 10.852s10.964-4.676 10.964-10.852c0-6.198-4.721-10.874-10.964-10.874zm46.816 9.755l-2.685-.313c-3.245-.38-4.789-1.433-4.789-3.401 0-2.394 2.305-3.804 5.594-3.804 2.931 0 5.728 1.097 7.138 2.103l1.096-1.968c-1.902-1.366-4.922-2.372-8.256-2.372-4.855 0-8.189 2.327-8.189 6.175 0 2.999 2.058 5.079 6.824 5.617l2.707.29c3.245.358 4.856 1.522 4.856 3.49 0 2.619-2.618 3.939-6.421 3.939-3.626 0-5.864-1.096-7.497-2.372l-1.186 1.903c2.439 1.878 5.594 2.684 8.66 2.684 5.414 0 9.062-2.305 9.062-6.31 0-3.333-2.506-5.146-6.914-5.661zm21.435 9.577c-4.789 0-8.212-3.692-8.212-8.458 0-4.744 3.379-8.48 8.212-8.48 4.766 0 8.189 3.647 8.189 8.48s-3.423 8.458-8.189 8.458zm8.055-14.947c-1.701-2.618-4.498-4.385-8.347-4.385-5.906 0-10.516 4.608-10.516 10.874 0 6.265 4.61 10.852 10.516 10.852 3.849 0 6.646-1.723 8.347-4.386v4.05h2.528V11.576h-2.528v4.05zm43.718-4.05l-7.942 13.85-8.48-13.85h-2.865l9.891 16.357-8.056 13.716h2.82l17.43-30.073h-2.798zm-31.905 3.58v-3.58h-2.506V32.63h2.528V20.75c0-4.23 2.507-7.093 6.019-7.093 1.276 0 2.685.29 3.737.85l.648-2.483c-1.141-.56-2.416-.806-3.938-.806-2.796 0-5.124 1.455-6.488 3.939zm-62.693 5.84L242 20.683c-3.244-.38-4.788-1.433-4.788-3.401 0-2.394 2.306-3.804 5.595-3.804 2.931 0 5.727 1.097 7.137 2.103l1.097-1.968c-1.902-1.366-4.924-2.372-8.257-2.372-4.856 0-8.189 2.327-8.189 6.175 0 2.999 2.059 5.079 6.824 5.617l2.707.29c3.244.358 4.856 1.522 4.856 3.49 0 2.619-2.618 3.939-6.421 3.939-3.625 0-5.863-1.096-7.496-2.372l-1.186 1.903c2.439 1.878 5.593 2.684 8.658 2.684 5.415 0 9.063-2.305 9.063-6.31 0-3.333-2.506-5.146-6.914-5.661zM57.565 1.313h-7.831L39.379 13.998h-2.952V1.313h-6.246V32.63h6.246V19.747h2.884L50.454 32.63h8.099L44.432 16.59 57.565 1.313zM73.29 26.908a9.934 9.934 0 01-9.936-9.937c0-5.483 4.447-9.937 9.936-9.937 5.484 0 9.931 4.454 9.931 9.937 0 5.49-4.447 9.937-9.931 9.937zm0-26.177c-8.974 0-16.246 7.272-16.246 16.24 0 8.969 7.272 16.24 16.246 16.24 8.969 0 16.241-7.271 16.241-16.24C89.531 8.003 82.259.73 73.29.73zM16.035 14.22l-1.765-.291c-3.76-.603-6.464-1.343-6.464-3.624 0-2.374 2.505-3.76 5.991-3.76 3.059 0 5.756.908 8.062 2.182l3.772-4.618C21.672 1.76 18.074.772 13.667.772c-6.669 0-12.486 3.4-12.486 9.932 0 5.687 4.027 8.08 9.553 8.975l1.988.31c4.363.715 6.65 1.499 6.65 3.674 0 2.412-2.666 3.779-6.153 3.779-3.747 0-7.146-1.362-9.44-2.977L0 29.1c3.356 2.704 8.428 4.09 13.195 4.09 6.737 0 12.822-3.313 12.822-10.2 0-5.438-4.363-7.874-9.982-8.77zM123.798 7.15h9.708v25.48h6.246V7.15h9.708V1.313h-25.662V7.15zm-9.389 12.666c0 5.12-2.933 7.402-7.227 7.402-4.295 0-7.223-2.281-7.223-7.402V1.313h-6.264v18.813c0 8.658 5.525 13.065 13.487 13.065 7.968 0 13.492-4.407 13.492-13.065V1.313h-6.265v18.503zm65.956-3.698v2.55h10.606c-.425 7.16-4.945 11.68-12.105 11.68-7.272 0-13.068-5.392-13.068-13.38 0-7.987 5.774-13.38 13.202-13.38 4.139 0 7.698 1.768 10.114 4.655l2.013-1.947C188.241 2.96 183.945.948 179 .948c-9.107 0-16.043 6.6-16.043 16.02 0 9.958 7.563 15.999 15.909 15.999 9.286 0 15.103-6.891 15.103-16.11v-.336c0-.112-.022-.246-.045-.403h-13.559z" fill="#B2B2B2" fill-rule="evenodd"/></svg>