<svg width="273" height="33" xmlns="http://www.w3.org/2000/svg"><path d="M194.014 20.467l7.048-16.916 7.049 16.916h-14.097zm5.414-19.58l-13.156 31.327h2.842l3.802-9.152h16.29l3.805 9.152h2.931L202.785.888h-3.357zm-31.234 2.596h18.57V.887h-21.301v31.327h2.731V17.737h17.833V15.14h-17.833V3.483zm70.348 13.425h-3.266l7.697 9.645c-2.327 2.147-5.481 3.378-9.039 3.378-7.43 0-13.202-5.393-13.202-13.38 0-7.988 5.772-13.38 13.202-13.38 7.406 0 13.179 5.392 13.179 13.38 0 3.155-.895 5.862-2.417 8.01l-6.154-7.653zm11.435-.358c0-9.398-6.893-16.02-16.043-16.02-9.152 0-16.043 6.622-16.043 16.02 0 9.397 6.891 16.02 16.043 16.02 4.206 0 7.965-1.386 10.762-3.87l2.864 3.514h3.222l-4.296-5.393c2.238-2.707 3.491-6.22 3.491-10.27zm15.728 4.027l-2.685-.313c-3.244-.38-4.788-1.431-4.788-3.402 0-2.393 2.305-3.802 5.595-3.802 2.929 0 5.728 1.096 7.136 2.103l1.098-1.969c-1.903-1.366-4.924-2.373-8.258-2.373-4.855 0-8.189 2.329-8.189 6.177 0 2.998 2.059 5.08 6.825 5.616l2.706.29c3.245.359 4.856 1.522 4.856 3.491 0 2.619-2.618 3.939-6.421 3.939-3.626 0-5.863-1.097-7.497-2.372l-1.185 1.902c2.438 1.88 5.594 2.686 8.659 2.686 5.415 0 9.062-2.306 9.062-6.311 0-3.335-2.505-5.146-6.914-5.662zM123.798 6.73h9.708v25.482h6.246V6.73h9.708V.895h-25.662V6.73zM57.565.895h-7.831L39.379 13.58h-2.952V.895h-6.246v31.317h6.246V19.328h2.884l11.143 12.884h8.099l-14.121-16.04L57.565.895zm-41.53 12.909l-1.765-.293c-3.76-.603-6.464-1.342-6.464-3.623 0-2.374 2.505-3.76 5.991-3.76 3.059 0 5.756.907 8.062 2.181l3.772-4.617C21.672 1.342 18.074.354 13.667.354c-6.669 0-12.486 3.4-12.486 9.931 0 5.687 4.027 8.08 9.553 8.976l1.988.31c4.363.714 6.65 1.498 6.65 3.674 0 2.41-2.666 3.778-6.153 3.778-3.747 0-7.146-1.362-9.44-2.976L0 28.681c3.356 2.704 8.428 4.09 13.195 4.09 6.737 0 12.822-3.313 12.822-10.2 0-5.437-4.363-7.873-9.982-8.768zM73.29 26.489a9.934 9.934 0 01-9.936-9.936c0-5.483 4.447-9.938 9.936-9.938 5.484 0 9.931 4.455 9.931 9.938 0 5.49-4.447 9.936-9.931 9.936zm0-26.177c-8.974 0-16.246 7.272-16.246 16.24 0 8.97 7.272 16.24 16.246 16.24 8.969 0 16.241-7.27 16.241-16.24 0-8.968-7.272-16.24-16.241-16.24zm41.12 19.085c0 5.122-2.934 7.403-7.228 7.403-4.295 0-7.223-2.281-7.223-7.402V.895h-6.264v18.813c0 8.657 5.525 13.065 13.487 13.065 7.968 0 13.492-4.408 13.492-13.066V.895h-6.264v18.504z" fill="#B2B2B2" fill-rule="evenodd"/></svg>