<svg width="358" height="290" viewBox="0 0 358 290" fill="none" xmlns="http://www.w3.org/2000/svg">
<g id="PSW-6">
<path id="Stroke 1" d="M90.3312 30.5083C94.4123 30.5083 98.3965 30.9214 102.245 31.7075C106.093 32.4936 109.805 33.6527 113.341 35.147C116.876 36.6389 120.237 38.4661 123.382 40.5871C126.527 42.7082 129.457 45.1243 132.13 47.7942C134.804 50.4641 137.224 53.389 139.348 56.5286C141.473 59.6683 143.303 63.0228 144.799 66.5532C146.294 70.0835 147.455 73.7897 148.242 77.6317C149.03 81.4737 149.444 85.4502 149.444 89.5247C149.444 93.5992 149.03 97.5769 148.242 101.419C147.455 105.261 146.294 108.967 144.799 112.496C143.303 116.027 141.473 119.382 139.348 122.522C137.224 125.66 134.804 128.586 132.13 131.255C129.457 133.925 126.527 136.341 123.382 138.462C120.237 140.583 116.876 142.41 113.341 143.904C109.805 145.397 106.093 146.556 102.245 147.342C98.3965 148.128 94.4123 148.541 90.3312 148.541C86.2513 148.541 82.2671 148.128 78.4189 147.342C74.5706 146.556 70.8584 145.397 67.3223 143.904C63.7862 142.41 60.4262 140.583 57.2814 138.462C54.1366 136.341 51.207 133.925 48.5328 131.255C45.8585 128.586 43.4397 125.66 41.314 122.522C39.1895 119.382 37.3594 116.027 35.865 112.496C34.3683 108.967 33.2085 105.261 32.4199 101.419C31.6325 97.5769 31.2188 93.5992 31.2188 89.5247C31.2188 85.4502 31.6325 81.4737 32.4199 77.6317C33.2085 73.7897 34.3683 70.0835 35.865 66.5532C37.3594 63.0228 39.1895 59.6683 41.314 56.5286C43.4397 53.389 45.8585 50.4641 48.5328 47.7942C51.207 45.1243 54.1366 42.7082 57.2814 40.5871" stroke="#B2B2B2" stroke-width="2" stroke-linecap="round" stroke-linejoin="round"/>
<path id="Stroke 3" d="M33.1055 50.7736L57.2813 40.5874" stroke="#B2B2B2" stroke-width="2" stroke-linecap="round" stroke-linejoin="round"/>
<path id="Stroke 5" d="M90.3314 80.6724V48.2134" stroke="#231F20" stroke-width="2" stroke-linecap="round" stroke-linejoin="round"/>
<path id="Stroke 7" d="M118.547 112.184L97.2383 95.0703" stroke="#231F20" stroke-width="2" stroke-linecap="round" stroke-linejoin="round"/>
<path id="Stroke 9" fill-rule="evenodd" clip-rule="evenodd" d="M99.1986 89.5248C99.1986 84.6359 95.2298 80.6724 90.3317 80.6724C85.4348 80.6724 81.4648 84.6359 81.4648 89.5248C81.4648 94.4149 85.4348 98.3773 90.3317 98.3773C95.2298 98.3773 99.1986 94.4149 99.1986 89.5248Z" stroke="#B2B2B2" stroke-width="2" stroke-linecap="round" stroke-linejoin="round"/>
<path id="Stroke 11" d="M176.377 102.283H284.955" stroke="#231F20" stroke-width="2" stroke-linecap="round" stroke-linejoin="round"/>
<path id="Stroke 13" d="M176.377 53.1619H284.955" stroke="#231F20" stroke-width="2" stroke-linecap="round" stroke-linejoin="round"/>
<path id="Stroke 15" d="M176.377 125.888H306.452" stroke="#231F20" stroke-width="2" stroke-linecap="round" stroke-linejoin="round"/>
<path id="Stroke 17" d="M176.377 78.3118H306.452" stroke="#231F20" stroke-width="2" stroke-linecap="round" stroke-linejoin="round"/>
<path id="Stroke 19" d="M307.439 168.654C336.44 154.113 356.337 124.132 356.337 89.5251C356.337 40.6359 316.637 1.00049 267.668 1.00049H90.3308C41.362 1.00049 1.66211 40.6359 1.66211 89.5251C1.66211 138.414 41.362 178.05 90.3308 178.05V220.176L132.526 178.05H166.633" stroke="#231F20" stroke-width="2" stroke-linecap="round" stroke-linejoin="round"/>
<path id="Stroke 21" fill-rule="evenodd" clip-rule="evenodd" d="M279.476 288.855L254.91 264.084C254.91 264.084 231.772 264.248 226.092 264.169C210.948 263.956 193.918 266.356 177.765 245.741C155.983 217.943 168.729 163.482 219.435 163.482H264.703C274.93 163.482 301.825 167.831 312.243 197.709C320.81 222.278 311.528 252.927 279.476 262.003V288.855Z" stroke="#B2B2B2" stroke-width="2" stroke-linecap="round" stroke-linejoin="round"/>
<path id="Stroke 23" fill-rule="evenodd" clip-rule="evenodd" d="M281.5 215.56C281.5 219.097 278.629 221.964 275.087 221.964C271.544 221.964 268.672 219.097 268.672 215.56C268.672 212.023 271.544 209.156 275.087 209.156C278.629 209.156 281.5 212.023 281.5 215.56Z" stroke="black" stroke-width="2" stroke-linecap="round" stroke-linejoin="round"/>
<path id="Stroke 25" fill-rule="evenodd" clip-rule="evenodd" d="M247.827 215.56C247.827 219.097 244.955 221.964 241.413 221.964C237.871 221.964 234.998 219.097 234.998 215.56C234.998 212.023 237.871 209.156 241.413 209.156C244.955 209.156 247.827 212.023 247.827 215.56Z" stroke="black" stroke-width="2" stroke-linecap="round" stroke-linejoin="round"/>
<path id="Stroke 27" fill-rule="evenodd" clip-rule="evenodd" d="M214.155 215.56C214.155 219.097 211.282 221.964 207.74 221.964C204.198 221.964 201.326 219.097 201.326 215.56C201.326 212.023 204.198 209.156 207.74 209.156C211.282 209.156 214.155 212.023 214.155 215.56Z" stroke="black" stroke-width="2" stroke-linecap="round" stroke-linejoin="round"/>
</g>
</svg>
