<svg width="391" height="332" fill="none" xmlns="http://www.w3.org/2000/svg"><path d="M104.3 256.24a131.67 131.67 0 0041.71 28.09c3.93 1.66 7.95 3.13 12.06 4.4M81.71 101.07a130.13 130.13 0 00-15.83 62.48 132.6 132.6 0 002.66 26.42 130.13 130.13 0 0019.74 46.87m229.7-124.31a130.6 130.6 0 00-19.65-32.36 131.79 131.79 0 00-62.23-41.8 130.57 130.57 0 00-39.02-5.9 132.97 132.97 0 00-26.44 2.67 130.7 130.7 0 00-46.92 19.72m203.89 122.09a132.46 132.46 0 000-26.8m-67.99 128.66a131.15 131.15 0 0030.24-22.57 132.11 132.11 0 0022.6-30.2 134.4 134.4 0 005.52-11.47" stroke="#B2B2B2" stroke-width="2" stroke-linecap="round" stroke-linejoin="round"/><path clip-rule="evenodd" d="M292.5 163.55c0-52.65-42.72-95.33-95.42-95.33s-95.42 42.68-95.42 95.33 42.72 95.33 95.42 95.33 95.42-42.68 95.42-95.33z" stroke="#231F20" stroke-width="2" stroke-linecap="round" stroke-linejoin="round"/><path clip-rule="evenodd" d="M286.25 163.55c0-49.2-39.92-89.08-89.17-89.08-49.24 0-89.16 39.89-89.16 89.08 0 49.2 39.92 89.08 89.16 89.08 49.25 0 89.17-39.88 89.17-89.08z" stroke="#B2B2B2" stroke-width="2" stroke-linecap="round" stroke-linejoin="round"/><path d="M136.88 39.74a2.38 2.38 0 01-2.38-2.38V3.99a2.38 2.38 0 012.38-2.38h53.04a2.38 2.38 0 012.39 2.38v21.62" stroke="#B2B2B2" stroke-width="2" stroke-linecap="round" stroke-linejoin="round"/><path clip-rule="evenodd" d="M245.12 191.87h-96.08v-58.93a4.43 4.43 0 014.43-4.42h87.22a4.43 4.43 0 014.43 4.42v58.93z" stroke="#231F20" stroke-width="2" stroke-linecap="round" stroke-linejoin="round"/><path clip-rule="evenodd" d="M254.73 191.87h-115.3v2.29a4.43 4.43 0 004.44 4.43H250.3a4.43 4.43 0 004.43-4.43v-2.3z" stroke="#231F20" stroke-width="2" stroke-linecap="round" stroke-linejoin="round"/><path d="M197.08 149.25v19.49" stroke="#000" stroke-width="2" stroke-linecap="round" stroke-linejoin="round"/><path fill-rule="evenodd" clip-rule="evenodd" d="M198.94 176a1.86 1.86 0 11-3.72 0 1.86 1.86 0 013.72 0z" fill="#000"/><mask id="a" maskUnits="userSpaceOnUse" x="0" y="0" width="391" height="332"><path fill-rule="evenodd" clip-rule="evenodd" d="M.97 331.49h389.25V.5H.97v330.99z" fill="#fff"/></mask><g mask="url(#a)" stroke-width="2" stroke-linecap="round" stroke-linejoin="round"><path clip-rule="evenodd" d="M192.31 282.71h9.54v-23.83h-9.54v23.83z" stroke="#231F20"/><path d="M183.96 330.38v-47.67h26.24v29.8" stroke="#231F20"/><path clip-rule="evenodd" d="M386.9 185.42h-14.65a2.21 2.21 0 01-2.22-2.21v-28.94c0-1.22 1-2.21 2.22-2.21h14.65c1.22 0 2.21.99 2.21 2.21v28.94c0 1.22-.99 2.21-2.21 2.21zM49.94 253.2a14.3 14.3 0 10-28.62.02 14.3 14.3 0 0028.62-.01zM333.76 30.16a14.3 14.3 0 10-28.61.01 14.3 14.3 0 0028.61-.01zm-313.48 106l14.05-24.31a2.21 2.21 0 00-1.92-3.32H4.3a2.21 2.21 0 00-1.93 3.32l14.06 24.31a2.22 2.22 0 003.84 0z" stroke="#B2B2B2"/><path d="M282.32 273.74l4.23 7.33a2.4 2.4 0 002.07 1.19h15.14c.85 0 1.64-.45 2.06-1.2l7.57-13.09c.43-.73.43-1.64 0-2.38l-7.57-13.1a2.39 2.39 0 00-2.06-1.19M31.33 277.85v28.14m8.59-28.14v13.08M344.44 32.47h7.33m6.75 0h25.28m-33.4-8.57h15.52" stroke="#B2B2B2"/></g></svg>