<svg width="302" height="302" fill="none" xmlns="http://www.w3.org/2000/svg"><g stroke-width="2" stroke-linecap="round" stroke-linejoin="round"><path d="M79.9 283.1A149.3 149.3 0 00151 301c25.7 0 50-6.5 71.1-17.9M80 18.9A149.3 149.3 0 01151 1c25.7 0 50 6.5 71.1 17.9M19 222.1A149.3 149.3 0 011 151c0-25.7 6.5-50 17.9-71.1m264.2 0A149.3 149.3 0 01301 151c0 25.7-6.5 50-17.9 71.1" stroke="#231F20"/><path d="M174.1 267.7a117.7 117.7 0 0039.7-15.6M34.3 127.9a117.7 117.7 0 0115.6-39.7m38.3-38.3a117.9 117.9 0 0139.7-15.6M34.3 174a117.7 117.7 0 0015.6 39.7m38.3 38.3a117.9 117.9 0 0039.7 15.6M174 34.3a117.7 117.7 0 0139.7 15.6m38.3 163.9a117.7 117.7 0 0015.6-39.7m-15.6-85.9a117.7 117.7 0 0115.6 39.7" stroke="#B2B2B2"/><path d="M154.1 166.3h5.2c.3 0 .6-.2.8-.5l8.3-14.3a1 1 0 000-1l-8.3-14.3a1 1 0 00-.8-.5h-16.6a1 1 0 00-.8.5l-8.3 14.3a1 1 0 000 1l8.3 14.3a1 1 0 00.9.5H154m0 46.8h5.2c.3 0 .6-.2.8-.5l8.3-14.3a1 1 0 000-1L160 183a1 1 0 00-.8-.5h-16.6a1 1 0 00-.8.5l-8.3 14.3a1 1 0 000 1l8.3 14.3a1 1 0 00.9.5H154m0-93.6h5.2c.3 0 .6-.2.8-.5l8.3-14.3a1 1 0 000-1L160 89.4a1 1 0 00-.8-.5h-16.6a1 1 0 00-.8.5l-8.3 14.3a1 1 0 000 1L142 119a1 1 0 00.9.5H154m-52.5 46.8h5.2c.3 0 .7-.2.8-.5l8.3-14.3a1 1 0 000-1l-8.3-14.3a1 1 0 00-.8-.5H90.3a1 1 0 00-1 .5l-8.2 14.3a1 1 0 000 1l8.3 14.3a1 1 0 00.9.5h11.3m105 0h5.2c.3 0 .6-.2.8-.5l8.3-14.3a1 1 0 000-1l-8.3-14.3a1 1 0 00-.8-.5h-16.6a1 1 0 00-.8.5l-8.3 14.3a1 1 0 000 1l8.3 14.3a1 1 0 00.9.5h11.3" stroke="#1A1A1A"/><path d="M103.3 129a52.7 52.7 0 0122.6-24.1m50.2 92.3a52.8 52.8 0 0022.6-24.1M176 104.9a52.7 52.7 0 0122.6 24M103.3 173a52.8 52.8 0 0022.6 24.1" stroke="#B2B2B2"/><path d="M297.6 236.3L213.9 214l22.4 83.7M4.4 65.6l83.7 22.5L65.7 4.4m0 293.2L88 213.9 4.4 236.3m232-231.9l-22.5 83.7 83.7-22.5" stroke="#1A1A1A"/><path d="M171 282.3l-20-34.6-20 34.6m0-262.6l20 34.6 20-34.6M19.7 171l34.6-20-34.6-20m262.6 0l-34.6 20 34.6 20" stroke="#B2B2B2"/></g></svg>