<svg width="318" height="275" fill="none" xmlns="http://www.w3.org/2000/svg"><g stroke-width="2" stroke-linecap="round" stroke-linejoin="round"><path clip-rule="evenodd" d="M35.25 1h-22.5L1.5 20.49l11.25 19.48h22.5L46.5 20.5 35.25 1zm45 58.46h-22.5L46.5 78.94l11.25 19.49h22.5L91.5 78.94 80.25 59.46zm90 0h-22.5L136.5 78.94l11.25 19.49h22.5l11.25-19.49-11.25-19.48zm90 0h-22.5L226.5 78.94l11.25 19.49h22.5l11.25-19.49-11.25-19.48zM125.25 1h-22.5L91.5 20.49l11.25 19.48h22.5L136.5 20.5 125.25 1zm90 0h-22.5L181.5 20.49l11.25 19.48h22.5L226.5 20.5 215.25 1zm90 0h-22.5L271.5 20.49l11.25 19.48h22.5L316.5 20.5 305.25 1zm-270 116.91h-22.5L1.5 137.4l11.25 19.48h22.5L46.5 137.4l-11.25-19.5zM80.25 176.37h-22.5L46.5 195.86l11.25 19.48h22.5l11.25-19.48-11.25-19.49zm90 0h-22.5l-11.25 19.49 11.25 19.48h22.5l11.25-19.48-11.25-19.49zm90 0h-22.5l-11.25 19.49 11.25 19.48h22.5l11.25-19.48-11.25-19.49zm-45-58.46h-22.5L181.5 137.4l11.25 19.48h22.5l11.25-19.48-11.25-19.49zM305.25 117.91h-22.5L271.5 137.4l11.25 19.48h22.5l11.25-19.48-11.25-19.49zm-270 116.92h-22.5L1.5 254.3l11.25 19.49h22.5L46.5 254.3l-11.25-19.48zm90 0h-22.5L91.5 254.3l11.25 19.49h22.5l11.25-19.49-11.25-19.48zm90 0h-22.5L181.5 254.3l11.25 19.49h22.5l11.25-19.49-11.25-19.48zm90 0h-22.5L271.5 254.3l11.25 19.49h22.5l11.25-19.49-11.25-19.48zM114 152.13l13.72-23.76h-27.44L114 152.13z" stroke="#1A1A1A"/><path d="M75.52 129.91a39.06 39.06 0 0116.91-25.25 38.96 38.96 0 0114.08-5.74m0 76.96a39.21 39.21 0 01-14.08-5.74 39.4 39.4 0 01-16.9-25.25m76.95-.01a39.09 39.09 0 01-23.73 28.84c-2.36.96-4.8 1.68-7.26 2.16m0-76.96a39.2 39.2 0 0128.83 23.73c.96 2.36 1.68 4.8 2.16 7.26m-14.96 7.49h32.2m-111.45 0h32.21M114 81.67v32.21m0 47.04v32.2" stroke="#B2B2B2"/></g></svg>