<svg width="318" height="317" fill="none" xmlns="http://www.w3.org/2000/svg"><g stroke-width="2" stroke-linecap="round" stroke-linejoin="round"><path d="M143.42 9C67.9 16.79 9 80.62 9 158.2c0 82.84 67.16 150 150 150 77.59 0 141.41-58.9 149.2-134.42" stroke="#B2B2B2"/><path d="M174.58 9c70.41 7.26 126.36 63.22 133.62 133.62" stroke="#231F20"/><path d="M46.87 201.02A119.52 119.52 0 0139 158.2a119.5 119.5 0 0129.44-78.73M59.81 225.75a119.88 119.88 0 0099.2 52.45c61 0 111.35-45.51 119-104.42M89.05 60.68a119.37 119.37 0 0154.37-21.48" stroke="#B2B2B2"/><path d="M269.06 110.3a119.12 119.12 0 018.94 32.32M174.58 39.2a119.77 119.77 0 0174.49 39.7M174.58 69.55a90.03 90.03 0 0173.07 73.07" stroke="#231F20"/><path d="M211.79 231.08a89.9 89.9 0 0035.86-57.3M143.42 69.55a90.01 90.01 0 1043.47 174.23" stroke="#B2B2B2"/><path d="M174.58 100.25a60.08 60.08 0 0142.38 42.37" stroke="#231F20"/><path d="M143.42 100.25a60.01 60.01 0 1073.54 73.53" stroke="#B2B2B2"/><path clip-rule="evenodd" d="M174 158.2a15 15 0 10-30 0 15 15 0 0030 0z" stroke="#231F20"/><path clip-rule="evenodd" d="M316.41 158.2c0-86.7-70.47-157-157.4-157-86.94 0-157.42 70.3-157.42 157s70.48 157 157.41 157c86.94 0 157.41-70.3 157.41-157z" stroke="#231F20"/><path d="M174 158.2h134.2" stroke="#231F20"/><path clip-rule="evenodd" d="M209.73 238.2a10 10 0 11-20 0 10 10 0 0120 0z" stroke="#B2B2B2"/><path clip-rule="evenodd" d="M204.73 238.2a5 5 0 11-10 0 5 5 0 0110 0zM72.94 77.86a10 10 0 1110-17.33 10 10 0 01-10 17.33z" stroke="#B2B2B2"/><path clip-rule="evenodd" d="M75.44 73.53a5 5 0 115-8.66 5 5 0 01-5 8.66zM47.47 222.5a10 10 0 1110-17.32 10 10 0 01-10 17.32z" stroke="#B2B2B2"/><path clip-rule="evenodd" d="M49.97 218.17a5 5 0 115-8.66 5 5 0 01-5 8.66z" stroke="#B2B2B2"/><path clip-rule="evenodd" d="M266.63 80.67H252.6a1 1 0 00-.86.5l-7.02 12.15a1 1 0 000 1l7.02 12.14c.17.31.5.5.86.5h14.03a1 1 0 00.86-.5l7.01-12.14a1 1 0 000-1l-7-12.15a1 1 0 00-.87-.5z" stroke="#1A1A1A"/></g></svg>