<svg width="315" height="311" fill="none" xmlns="http://www.w3.org/2000/svg"><g stroke-width="2" stroke-linecap="round" stroke-linejoin="round"><path d="M71.2 72.9l50.5 50.5m-99-99L38 39.6" stroke="#B2B2B2"/><path clip-rule="evenodd" d="M168 152.5a10.4 10.4 0 11-20.7 0 10.4 10.4 0 0120.8 0z" stroke="#231F20"/><path clip-rule="evenodd" d="M157.7 125.4a34 34 0 00-21.2 60.4 21.5 21.5 0 0113.1-16.1l8.1 9.6 8-9.7a21.6 21.6 0 0113.2 16.2 34 34 0 00-21.2-60.4z" stroke="#231F20"/><path clip-rule="evenodd" d="M197.3 159.4a39.6 39.6 0 11-79.2 0 39.6 39.6 0 0179.2 0z" stroke="#B2B2B2"/><path d="M157.7 50v58.4M35.8 205.5v24.8m82.3-71H40.4a4.5 4.5 0 00-4.6 4.6v7.3m232.5-11.8h-71m71-110.6l-22 22m-24 24l-28.6 28.6m99-99l-15.3 15.2m2.2 168.1V164c0-2.5-2-4.5-4.6-4.5h-77.7" stroke="#B2B2B2"/><path clip-rule="evenodd" d="M65.2 298.2H6.4a4.5 4.5 0 01-4.5-4.5v-58.8c0-2.5 2-4.6 4.5-4.6h58.8c2.5 0 4.5 2 4.5 4.6v58.8c0 2.5-2 4.5-4.5 4.5z" stroke="#B2B2B2"/><path d="M267.6 224.6l-7.8-13.5c-.9-1.5.2-3.4 2-3.4h35.6a2.3 2.3 0 012 3.4l-7.8 13.5" stroke="#1A1A1A"/><path clip-rule="evenodd" d="M251.3 82.9a17 17 0 10-34 0 17 17 0 0034 0zM67.9 43.2H49.4c-.4 0-.8.2-1 .6l-9.2 16c-.2.3-.2.8 0 1.1l9.2 16c.2.4.6.6 1 .6H68c.4 0 .8-.2 1-.6L78 61c.2-.3.2-.8 0-1.1l-9.2-16c-.2-.4-.6-.6-1-.6zm-22.8 128H26.6c-.4 0-.8.2-1 .6l-9.2 16c-.2.3-.2.8 0 1.1l9.2 16c.2.4.6.6 1 .6H45c.4 0 .7-.2 1-.6l9.2-16c.2-.3.2-.8 0-1.1l-9.3-16c-.2-.4-.5-.6-1-.6z" stroke="#1A1A1A"/><path d="M50.6 256.7l-17 17-11.4-11.3" stroke="#231F20"/><path clip-rule="evenodd" d="M309 298.2h-58.8a4.5 4.5 0 01-4.6-4.5v-58.8c0-2.5 2-4.6 4.6-4.6H309c2.5 0 4.5 2 4.5 4.6v58.8c0 2.5-2 4.5-4.5 4.5z" stroke="#B2B2B2"/><path d="M157.7 14.7V1m0 231.3V199m0 78.6v32" stroke="#B2B2B2"/><path d="M269.4 254.1l20.4 20.4m0-20.4l-20.4 20.4" stroke="#231F20"/><path clip-rule="evenodd" d="M159.7 48.9l17.8-30.8c.8-1.5-.3-3.4-2-3.4h-35.6a2.3 2.3 0 00-2 3.4l17.8 30.8a2.3 2.3 0 004 0zm15 200.4a17 17 0 10-34 0 17 17 0 0034 0z" stroke="#1A1A1A"/></g></svg>