<svg width="302" height="302" fill="none" xmlns="http://www.w3.org/2000/svg"><g stroke-width="2" stroke-linecap="round" stroke-linejoin="round"><path d="M79.9 283.1A149.28 149.28 0 00151 301c25.74 0 49.96-6.48 71.12-17.9M79.9 18.9A149.28 149.28 0 01151 1c25.74 0 49.96 6.48 71.12 17.9M18.9 222.12A149.35 149.35 0 011 151c0-25.73 6.48-49.95 17.9-71.12M283.1 79.89A149.28 149.28 0 01301 151c0 25.73-6.48 49.95-17.9 71.11" stroke="#231F20"/><path d="M174.13 267.74a117.7 117.7 0 0039.68-15.66M34.26 127.87A117.68 117.68 0 0149.92 88.2M88.2 49.91a117.9 117.9 0 0139.67-15.65M34.26 174.13a117.68 117.68 0 0015.66 39.67M88.2 252.09a117.9 117.9 0 0039.67 15.65M174.13 34.26a117.68 117.68 0 0139.68 15.66M252.08 213.8a117.66 117.66 0 0015.66-39.67M252.08 88.2a117.66 117.66 0 0115.66 39.67" stroke="#B2B2B2"/><path d="M154.13 166.3h5.12c.36 0 .7-.2.87-.51l8.25-14.28a1 1 0 000-1.01l-8.25-14.28c-.18-.32-.51-.5-.87-.5h-16.5a1 1 0 00-.87.5l-8.24 14.28c-.18.3-.18.7 0 1l8.25 14.29a1 1 0 00.87.5h11.37M154.13 213.08h5.12c.36 0 .7-.2.87-.5l8.25-14.29a1 1 0 000-1L160.12 183a1 1 0 00-.87-.5h-16.5a1 1 0 00-.87.5l-8.24 14.29c-.18.3-.18.7 0 1l8.25 14.29a1 1 0 00.87.5h11.37M154.13 119.5h5.12c.36 0 .7-.19.87-.5l8.25-14.28a1 1 0 000-1.01l-8.25-14.28c-.18-.32-.51-.5-.87-.5h-16.5a1 1 0 00-.87.5l-8.24 14.28c-.18.31-.18.7 0 1l8.25 14.29a1 1 0 00.87.5h11.37M101.63 166.3h5.12c.36 0 .7-.2.87-.51l8.25-14.28a1 1 0 000-1.01l-8.25-14.28c-.18-.32-.51-.5-.87-.5h-16.5a1 1 0 00-.87.5l-8.24 14.28c-.18.3-.18.7 0 1l8.24 14.29a1 1 0 00.88.5h11.37M206.63 166.3h5.12c.36 0 .7-.2.87-.51l8.25-14.28a1 1 0 000-1.01l-8.25-14.28c-.18-.32-.51-.5-.87-.5h-16.5a1 1 0 00-.87.5l-8.24 14.28c-.18.3-.18.7 0 1l8.25 14.29a1 1 0 00.87.5h11.37" stroke="#1A1A1A"/><path d="M103.34 128.97a52.73 52.73 0 0122.6-24.1M176.07 197.15a52.76 52.76 0 0022.6-24.1M176.07 104.86a52.66 52.66 0 0122.6 24.1M103.34 173.04a52.84 52.84 0 0022.6 24.1" stroke="#B2B2B2"/><path d="M297.59 236.35l-83.65-22.41 22.41 83.65M4.42 65.65l83.65 22.42L65.66 4.42M65.66 297.59l22.4-83.65-83.64 22.41M236.35 4.42l-22.41 83.65 83.65-22.42" stroke="#1A1A1A"/><path d="M171 282.32l-20-34.64-20 34.64M131 19.68l20 34.64 20-34.64M19.68 171l34.65-20-34.65-20M282.32 131l-34.64 20 34.64 20" stroke="#B2B2B2"/></g></svg>