<svg width="318" height="317" fill="none" xmlns="http://www.w3.org/2000/svg"><g stroke-width="2" stroke-linecap="round" stroke-linejoin="round"><path d="M143.4 9a150 150 0 10164.8 164.8" stroke="#B2B2B2"/><path d="M174.6 9a150 150 0 01133.6 133.6" stroke="#231F20"/><path d="M46.9 201a119.5 119.5 0 01-7.9-42.8 119.5 119.5 0 0129.4-78.7m-8.6 146.3a119.9 119.9 0 0099.2 52.4 120 120 0 00119-104.4M89 60.7a119.4 119.4 0 0154.4-21.5" stroke="#B2B2B2"/><path d="M269 110.3a119.1 119.1 0 019 32.3M174.6 39.2A119.8 119.8 0 01249 78.9m-74.5-9.4a90 90 0 0173 73.1" stroke="#231F20"/><path d="M211.8 231a89.9 89.9 0 0035.8-57.2M143.4 69.5A90 90 0 10187 243.9" stroke="#B2B2B2"/><path d="M174.6 100.3a60 60 0 0142.4 42.3" stroke="#231F20"/><path d="M143.4 100.3a60 60 0 1073.6 73.5" stroke="#B2B2B2"/><path clip-rule="evenodd" d="M174 158.2a15 15 0 10-30 0 15 15 0 0030 0z" stroke="#231F20"/><path clip-rule="evenodd" d="M316.4 158.2c0-86.7-70.5-157-157.4-157-87 0-157.4 70.3-157.4 157s70.5 157 157.4 157c87 0 157.4-70.3 157.4-157z" stroke="#231F20"/><path d="M174 158.2h134.2" stroke="#231F20"/><path clip-rule="evenodd" d="M209.7 238.2a10 10 0 11-20 0 10 10 0 0120 0z" stroke="#B2B2B2"/><path clip-rule="evenodd" d="M204.7 238.2a5 5 0 11-10 0 5 5 0 0110 0zM73 77.9a10 10 0 1110-17.4A10 10 0 0173 78z" stroke="#B2B2B2"/><path clip-rule="evenodd" d="M75.4 73.5a5 5 0 115-8.6 5 5 0 01-5 8.6zm-28 149a10 10 0 1110-17.3 10 10 0 01-10 17.3z" stroke="#B2B2B2"/><path clip-rule="evenodd" d="M50 218.2a5 5 0 115-8.7 5 5 0 01-5 8.7z" stroke="#B2B2B2"/><path clip-rule="evenodd" d="M266.6 80.7h-14a1 1 0 00-.9.5l-7 12.1a1 1 0 000 1l7 12.2c.2.3.5.5.9.5h14a1 1 0 00.9-.5l7-12.2a1 1 0 000-1l-7-12.1a1 1 0 00-.9-.5z" stroke="#1A1A1A"/></g></svg>