<svg width="323" height="282" fill="none" xmlns="http://www.w3.org/2000/svg"><g stroke="#B2B2B2" stroke-width="2" stroke-linecap="round" stroke-linejoin="round"><path d="M1.87 248.43V33.57M249.53 280.88H34.36"/></g><path d="M282.03 208.2v40.23M282.03 33.57v40.67M34.37 1.12h215.17" stroke="#B2B2B2" stroke-width="2" stroke-linecap="round" stroke-linejoin="round"/><path d="M276.43 196.95v73.86c0 2.47-2 4.48-4.48 4.48h-260c-2.47 0-4.48-2-4.48-4.48V11.19c0-2.47 2-4.48 4.48-4.48h260c2.47 0 4.48 2 4.48 4.48v73.86" stroke="#1A1A1A" stroke-width="2" stroke-linecap="round" stroke-linejoin="round"/><path clip-rule="evenodd" d="M321.25 141a44.8 44.8 0 01-44.82 44.76A44.8 44.8 0 01231.6 141a44.8 44.8 0 0144.83-44.76A44.8 44.8 0 01321.25 141z" stroke="#1A1A1A" stroke-width="2" stroke-linecap="round" stroke-linejoin="round"/><path d="M276.43 126.54v19.7" stroke="#000" stroke-width="2" stroke-linecap="round" stroke-linejoin="round"/><path fill-rule="evenodd" clip-rule="evenodd" d="M278.31 153.58a1.88 1.88 0 11-3.76 0 1.88 1.88 0 013.76 0z" fill="#000"/><path d="M77.51 55.67h113.2M77.51 41.68h135.6" stroke="#B2B2B2" stroke-width="2" stroke-linecap="round" stroke-linejoin="round"/><path clip-rule="evenodd" d="M63.5 48.68a14 14 0 11-28-.02 14 14 0 0128 .02z" stroke="#B2B2B2" stroke-width="2" stroke-linecap="round" stroke-linejoin="round"/><path d="M77.51 111.63h135.6M77.51 97.64h113.2" stroke="#B2B2B2" stroke-width="2" stroke-linecap="round" stroke-linejoin="round"/><path clip-rule="evenodd" d="M63.5 104.63a14 14 0 11-28-.02 14 14 0 0128 .02z" stroke="#B2B2B2" stroke-width="2" stroke-linecap="round" stroke-linejoin="round"/><path d="M77.51 167.58h135.6M77.51 153.59h113.2" stroke="#B2B2B2" stroke-width="2" stroke-linecap="round" stroke-linejoin="round"/><path clip-rule="evenodd" d="M63.5 160.58a14 14 0 11-28-.02 14 14 0 0128 .02z" stroke="#B2B2B2" stroke-width="2" stroke-linecap="round" stroke-linejoin="round"/><path d="M49.5 228.56v19.87M60.7 217.37v31.06M71.9 206.18v42.25M83.11 211.78v36.65M94.32 222.97v25.46M105.53 211.78v36.65M116.73 222.97v25.46M127.94 234.16v14.27M204.15 211.78h30.46M169.96 211.78h20.74M225.44 227.3h9.17M169.96 227.3H212M194.94 242.84h39.67M169.96 242.84h11.53" stroke="#B2B2B2" stroke-width="2" stroke-linecap="round" stroke-linejoin="round"/><path clip-rule="evenodd" d="M191.57 246.2h-6.72a3.36 3.36 0 110-6.72h6.72a3.36 3.36 0 110 6.71zM222.08 230.66h-6.72a3.36 3.36 0 110-6.71h6.72a3.36 3.36 0 110 6.71zM200.79 215.13h-6.72a3.36 3.36 0 110-6.7h6.72a3.36 3.36 0 110 6.7z" stroke="#B2B2B2" stroke-width="2" stroke-linecap="round" stroke-linejoin="round"/></svg>