<svg width="358" height="290" fill="none" xmlns="http://www.w3.org/2000/svg"><g stroke-width="2" stroke-linecap="round" stroke-linejoin="round"><path d="M90.3 30.5a59.5 59.5 0 0123 4.7 59 59 0 0118.8 12.6 59.3 59.3 0 0112.7 18.8 58.5 58.5 0 014.6 23 59.1 59.1 0 01-4.6 22.9 58.9 58.9 0 01-12.7 18.8 59.3 59.3 0 01-18.8 12.6 58.7 58.7 0 01-23 4.6 59.5 59.5 0 01-23-4.6 59 59 0 01-26-21.4 58.8 58.8 0 01-8.9-44.9 58.5 58.5 0 019-21 59.4 59.4 0 0115.9-16M33 50.8l24.2-10.2" stroke="#B2B2B2"/><path d="M90.3 80.7V48.2m28.3 64L97.2 95" stroke="#231F20"/><path clip-rule="evenodd" d="M99.2 89.5a8.9 8.9 0 10-17.7 0 8.9 8.9 0 0017.7 0z" stroke="#B2B2B2"/><path d="M176.4 102.3h108.5M176.4 53.2h108.5m-108.5 72.7h130m-130-47.6h130m1 90.4a88.5 88.5 0 0049-79.2A88.6 88.6 0 00267.6 1H90.3a88.6 88.6 0 100 177v42.2l42.2-42.1h34.1" stroke="#231F20"/><path clip-rule="evenodd" d="M279.5 288.9L254.9 264h-28.8c-15.1-.1-32.2 2.3-48.3-18.4-21.8-27.8-9-82.2 41.6-82.2h45.3a50 50 0 0147.5 34.2c8.6 24.6-.7 55.2-32.7 64.3V289z" stroke="#B2B2B2"/><path clip-rule="evenodd" d="M281.5 215.6a6.4 6.4 0 11-12.8 0 6.4 6.4 0 0112.8 0zm-33.7 0a6.4 6.4 0 11-12.8 0 6.4 6.4 0 0112.8 0zm-33.6 0a6.4 6.4 0 11-12.9 0 6.4 6.4 0 0112.8 0z" stroke="#000"/></g></svg>