<svg width="318" height="275" fill="none" xmlns="http://www.w3.org/2000/svg"><g stroke-width="2" stroke-linecap="round" stroke-linejoin="round"><path clip-rule="evenodd" d="M35.25 1h-22.5L1.5 20.49l11.25 19.48h22.5L46.5 20.5 35.25 1zM80.25 59.46h-22.5L46.5 78.94l11.25 19.49h22.5L91.5 78.94 80.25 59.46zM170.25 59.46h-22.5L136.5 78.94l11.25 19.49h22.5l11.25-19.49-11.25-19.48zM260.25 59.46h-22.5L226.5 78.94l11.25 19.49h22.5l11.25-19.49-11.25-19.48z" stroke="#1A1A1A"/><g clip-rule="evenodd" stroke="#1A1A1A"><path d="M125.25 1h-22.5L91.5 20.49l11.25 19.48h22.5L136.5 20.5 125.25 1zM215.25 1h-22.5L181.5 20.49l11.25 19.48h22.5L226.5 20.5 215.25 1zM305.25 1h-22.5L271.5 20.49l11.25 19.48h22.5L316.5 20.5 305.25 1zM35.25 117.91h-22.5L1.5 137.4l11.25 19.48h22.5L46.5 137.4 35.25 117.9z"/></g><path clip-rule="evenodd" d="M80.25 176.37h-22.5L46.5 195.86l11.25 19.48h22.5l11.25-19.48-11.25-19.49zM170.25 176.37h-22.5l-11.25 19.49 11.25 19.48h22.5l11.25-19.48-11.25-19.49zM260.25 176.37h-22.5l-11.25 19.49 11.25 19.48h22.5l11.25-19.48-11.25-19.49zM215.25 117.91h-22.5L181.5 137.4l11.25 19.48h22.5l11.25-19.48-11.25-19.49z" stroke="#1A1A1A"/><g clip-rule="evenodd" stroke="#1A1A1A"><path d="M305.25 117.91h-22.5L271.5 137.4l11.25 19.48h22.5l11.25-19.48-11.25-19.49zM35.25 234.83h-22.5L1.5 254.3l11.25 19.49h22.5L46.5 254.3l-11.25-19.48zM125.25 234.83h-22.5L91.5 254.3l11.25 19.49h22.5l11.25-19.49-11.25-19.48zM215.25 234.83h-22.5L181.5 254.3l11.25 19.49h22.5l11.25-19.49-11.25-19.48zM305.25 234.83h-22.5L271.5 254.3l11.25 19.49h22.5l11.25-19.49-11.25-19.48z"/></g><path clip-rule="evenodd" d="M114 152.13l13.72-23.76h-27.44L114 152.13z" stroke="#1A1A1A"/><g stroke="#B2B2B2"><path d="M75.52 129.91a39.06 39.06 0 0116.91-25.25 38.96 38.96 0 0114.08-5.74M106.51 175.88a39.21 39.21 0 01-14.08-5.74 39.4 39.4 0 01-16.9-25.25M152.48 144.88a39.09 39.09 0 01-23.73 28.84c-2.36.96-4.8 1.68-7.26 2.16M121.49 98.92a39.2 39.2 0 0128.83 23.73c.96 2.36 1.68 4.8 2.16 7.26M137.52 137.4h32.2M58.27 137.4h32.21M114 81.67v32.21M114 160.92v32.2"/></g></g></svg>