<svg width="323" height="282" fill="none" xmlns="http://www.w3.org/2000/svg"><path d="M1.9 248.4V33.6m247.6 247.3H34.4M282 208.2v40.2m0-214.8v40.6M34.4 1.2h215.1" stroke="#B2B2B2" stroke-width="2" stroke-linecap="round" stroke-linejoin="round"/><path d="M276.4 197v73.8c0 2.5-2 4.5-4.4 4.5H12c-2.5 0-4.5-2-4.5-4.5V11.2c0-2.5 2-4.5 4.4-4.5h260c2.5 0 4.5 2 4.5 4.5V85" stroke="#1A1A1A" stroke-width="2" stroke-linecap="round" stroke-linejoin="round"/><path clip-rule="evenodd" d="M321.3 141a44.8 44.8 0 01-44.9 44.8 44.8 44.8 0 01-44.8-44.8 44.8 44.8 0 0144.8-44.8 44.8 44.8 0 0144.9 44.8z" stroke="#1A1A1A" stroke-width="2" stroke-linecap="round" stroke-linejoin="round"/><path d="M276.4 126.5v19.7" stroke="#000" stroke-width="2" stroke-linecap="round" stroke-linejoin="round"/><path fill-rule="evenodd" clip-rule="evenodd" d="M278.3 153.6a1.9 1.9 0 11-3.8 0 1.9 1.9 0 013.8 0z" fill="#000"/><path d="M77.5 55.7h113.2m-113.2-14h135.6" stroke="#B2B2B2" stroke-width="2" stroke-linecap="round" stroke-linejoin="round"/><path clip-rule="evenodd" d="M63.5 48.7a14 14 0 11-28 0 14 14 0 0128 0z" stroke="#B2B2B2" stroke-width="2" stroke-linecap="round" stroke-linejoin="round"/><path d="M77.5 111.6h135.6m-135.6-14h113.2" stroke="#B2B2B2" stroke-width="2" stroke-linecap="round" stroke-linejoin="round"/><path clip-rule="evenodd" d="M63.5 104.6a14 14 0 11-28 0 14 14 0 0128 0z" stroke="#B2B2B2" stroke-width="2" stroke-linecap="round" stroke-linejoin="round"/><path d="M77.5 167.6h135.6m-135.6-14h113.2" stroke="#B2B2B2" stroke-width="2" stroke-linecap="round" stroke-linejoin="round"/><path clip-rule="evenodd" d="M63.5 160.6a14 14 0 11-28 0 14 14 0 0128 0z" stroke="#B2B2B2" stroke-width="2" stroke-linecap="round" stroke-linejoin="round"/><path d="M49.5 228.6v19.8m11.2-31v31m11.2-42.2v42.2m11.2-36.6v36.6M94.3 223v25.4m11.2-36.6v36.6m11.2-25.4v25.4m11.2-14.2v14.2m76.3-36.6h30.4m-64.6 0h20.7m34.7 15.5h9.2m-64.6 0h42m-17 15.5h39.6m-64.6 0h11.5" stroke="#B2B2B2" stroke-width="2" stroke-linecap="round" stroke-linejoin="round"/><path clip-rule="evenodd" d="M191.6 246.2h-6.8a3.4 3.4 0 110-6.7h6.8a3.4 3.4 0 110 6.7zm30.5-15.5h-6.7a3.4 3.4 0 110-6.7h6.7a3.4 3.4 0 110 6.7zM200.8 215H194a3.4 3.4 0 110-6.7h6.7a3.4 3.4 0 110 6.7z" stroke="#B2B2B2" stroke-width="2" stroke-linecap="round" stroke-linejoin="round"/></svg>