<svg width="254" height="350" fill="none" xmlns="http://www.w3.org/2000/svg"><g stroke-width="2" stroke-linecap="round" stroke-linejoin="round"><path d="M168.95 49.15h50.34c1.16 0 2.1.94 2.1 2.1v247.5a2.1 2.1 0 01-2.1 2.1H34.71a2.1 2.1 0 01-2.1-2.1V51.25c0-1.16.94-2.1 2.1-2.1h50.34" stroke="#000"/><path d="M1.15 300.85V43.9a26.22 26.22 0 0126.22-26.22H127M252.85 49.15v256.94a26.22 26.22 0 01-26.22 26.22H127" stroke="#B2B2B2"/><path d="M168.96 59.63h41.94V258.9l-15.73 15.74-15.73 15.73H43.11V59.63h41.95" stroke="#B2B2B2"/><path clip-rule="evenodd" d="M154.27 70.12H99.73a4.2 4.2 0 01-4.2-4.19V42.86a4.2 4.2 0 014.2-4.2h54.54a4.2 4.2 0 014.2 4.2v23.07a4.2 4.2 0 01-4.2 4.2z" stroke="#000"/><path d="M179.44 290.36V258.9h31.46" stroke="#B2B2B2"/><path clip-rule="evenodd" d="M168.95 138.3a41.95 41.95 0 10-83.9 0 41.95 41.95 0 0083.9 0z" stroke="#231F20"/><path d="M146.64 129.87l-23.57 23.57-15.7-15.71" stroke="#231F20"/><path d="M85.05 201.22h83.9M85.05 222.19h83.9M85.05 243.16h83.9M99.73 1.96L127 17.69M127 332.31l27.27 15.73" stroke="#B2B2B2"/></g></svg>