<svg width="358" height="290" fill="none" xmlns="http://www.w3.org/2000/svg"><g stroke-width="2" stroke-linecap="round" stroke-linejoin="round"><path d="M90.33 30.5a59.48 59.48 0 0123.01 4.65 58.97 58.97 0 0118.79 12.64 59.31 59.31 0 0112.67 18.76 58.51 58.51 0 014.64 22.97 59.15 59.15 0 01-4.64 22.98 58.85 58.85 0 01-12.67 18.75 59.3 59.3 0 01-18.79 12.65 58.74 58.74 0 01-23 4.64 59.48 59.48 0 01-23.02-4.64 59.08 59.08 0 01-26-21.38 58.77 58.77 0 01-8.9-44.89 58.5 58.5 0 018.9-21.1 59.4 59.4 0 0115.96-15.94M33.1 50.77L57.29 40.6" stroke="#B2B2B2"/><path d="M90.33 80.67V48.21M118.55 112.18L97.24 95.07" stroke="#231F20"/><path clip-rule="evenodd" d="M99.2 89.52a8.86 8.86 0 10-17.72.02 8.86 8.86 0 0017.72-.02z" stroke="#B2B2B2"/><path d="M176.38 102.28h108.57M176.38 53.16h108.57M176.38 125.89h130.07M176.38 78.31h130.07M307.44 168.65a88.48 88.48 0 0048.9-79.12c0-48.9-39.7-88.53-88.67-88.53H90.33C41.36 1 1.66 40.64 1.66 89.53c0 48.88 39.7 88.52 88.67 88.52v42.13l42.2-42.13h34.1" stroke="#231F20"/><path clip-rule="evenodd" d="M279.48 288.86l-24.57-24.78s-23.14.17-28.82.09c-15.14-.21-32.17 2.19-48.33-18.43-21.78-27.8-9.03-82.26 41.68-82.26h45.26c10.23 0 37.13 4.35 47.54 34.23 8.57 24.57-.71 55.22-32.76 64.3v26.85z" stroke="#B2B2B2"/><path clip-rule="evenodd" d="M281.5 215.56a6.4 6.4 0 11-12.82 0 6.4 6.4 0 0112.82 0zM247.83 215.56a6.4 6.4 0 11-12.82-.01 6.4 6.4 0 0112.82.01zM214.16 215.56a6.41 6.41 0 11-12.82-.01 6.41 6.41 0 0112.81.01z" stroke="#000"/></g></svg>