<svg width="352" height="264" fill="none" xmlns="http://www.w3.org/2000/svg"><path d="M327.08 189.87a193.95 193.95 0 01-93.6 64.08 193.21 193.21 0 01-57.48 8.68c-19.7 0-39.04-2.94-57.48-8.68a193.93 193.93 0 01-93.61-64.08m-.01-116.1a193.93 193.93 0 0193.62-64.08A193.25 193.25 0 01176 1a192.12 192.12 0 01109.63 34.11 193.95 193.95 0 0141.45 38.66" stroke="#B2B2B2" stroke-width="2" stroke-linecap="round" stroke-linejoin="round"/><path clip-rule="evenodd" d="M349.7 125a18.46 18.46 0 010 13.63c-27.5 69-94.9 117.77-173.7 117.77-78.81 0-146.22-48.77-173.7-117.77a18.45 18.45 0 010-13.63C29.78 56 97.2 7.23 176 7.23 254.8 7.23 322.2 56 349.7 125z" stroke="#1A1A1A" stroke-width="2" stroke-linecap="round" stroke-linejoin="round"/><path clip-rule="evenodd" d="M197.8 131.82a21.8 21.8 0 10-43.6 0 21.8 21.8 0 0043.6 0z" stroke="#1A1A1A" stroke-width="2" stroke-linecap="round" stroke-linejoin="round"/><path clip-rule="evenodd" d="M213.38 131.82c0-41.29-16.74-74.75-37.38-74.75-20.64 0-37.38 33.46-37.38 74.75 0 41.28 16.74 74.75 37.38 74.75 20.64 0 37.38-33.47 37.38-74.75z" stroke="#B2B2B2" stroke-width="2" stroke-linecap="round" stroke-linejoin="round"/><path clip-rule="evenodd" d="M176 169.2c41.28 0 74.75-16.74 74.75-37.38 0-20.65-33.47-37.38-74.75-37.38s-74.75 16.73-74.75 37.38c0 20.64 33.47 37.37 74.75 37.37z" stroke="#B2B2B2" stroke-width="2" stroke-linecap="round" stroke-linejoin="round"/><path clip-rule="evenodd" d="M250.75 131.82a74.75 74.75 0 10-149.5 0 74.75 74.75 0 00149.5 0z" stroke="#1A1A1A" stroke-width="2" stroke-linecap="round" stroke-linejoin="round"/><path d="M189.88 31.82a101.1 101.1 0 0136.59 12.59 100.6 100.6 0 0147.03 61.29M162.12 231.82a101.09 101.09 0 01-36.59-12.6 100.61 100.61 0 01-47.03-61.29M239.92 38.45l-50.04-6.63m-77.8 193.37l50.04 6.63" stroke="#231F20" stroke-width="2" stroke-linecap="round" stroke-linejoin="round"/><path d="M258.92 187.73a99.78 99.78 0 0015.05-35.76 100.46 100.46 0 002.03-20.15M93.08 75.9A99.7 99.7 0 0076 131.83" stroke="#B2B2B2" stroke-width="2" stroke-linecap="round" stroke-linejoin="round"/></svg>