<svg width="315" height="311" fill="none" xmlns="http://www.w3.org/2000/svg"><g stroke-width="2" stroke-linecap="round" stroke-linejoin="round"><path d="M71.22 72.88l50.48 50.49M22.72 24.37l15.26 15.27" stroke="#B2B2B2"/><path clip-rule="evenodd" d="M168.06 152.54a10.36 10.36 0 11-20.72.02 10.36 10.36 0 0120.72-.02z" stroke="#231F20"/><path clip-rule="evenodd" d="M157.7 125.43a33.93 33.93 0 00-21.23 60.41 21.54 21.54 0 0113.15-16.17l8.1 9.66 8.06-9.69a21.65 21.65 0 0113.16 16.19 33.93 33.93 0 00-21.24-60.4z" stroke="#231F20"/><path clip-rule="evenodd" d="M197.3 159.37a39.6 39.6 0 11-79.2 0 39.6 39.6 0 0179.2 0z" stroke="#B2B2B2"/><path d="M157.7 50.04v58.41M35.83 205.5v24.84M118.1 159.37H40.36a4.53 4.53 0 00-4.52 4.52v7.3M268.26 159.37h-70.97M268.26 48.8l-22.03 22.02M222.24 94.82l-28.55 28.55M292.68 24.37L277.4 39.64M279.57 207.72v-43.83c0-2.5-2.02-4.52-4.52-4.52h-77.76" stroke="#B2B2B2"/><path clip-rule="evenodd" d="M65.24 298.23H6.4a4.53 4.53 0 01-4.52-4.53v-58.83c0-2.5 2.02-4.53 4.52-4.53h58.83c2.5 0 4.52 2.03 4.52 4.53v58.83c0 2.5-2.02 4.53-4.52 4.53z" stroke="#B2B2B2"/><path d="M267.59 224.58l-7.78-13.47c-.87-1.5.22-3.4 1.96-3.4h35.6a2.26 2.26 0 011.96 3.4l-7.76 13.47" stroke="#1A1A1A"/><path clip-rule="evenodd" d="M251.3 82.9a16.97 16.97 0 10-33.95 0 16.97 16.97 0 0033.94 0zM67.9 43.2H49.41c-.4 0-.78.21-.98.56L39.2 59.78c-.2.35-.2.78 0 1.13l9.24 16.01c.2.35.58.57.98.57h18.5c.4 0 .77-.22.97-.57l9.25-16.01c.2-.35.2-.78 0-1.13l-9.25-16.02c-.2-.35-.57-.56-.98-.56zM45.07 171.2H26.58c-.4 0-.78.21-.98.56l-9.24 16.02c-.2.35-.2.78 0 1.13l9.24 16.02c.2.35.58.56.98.56h18.5c.4 0 .77-.21.97-.56l9.25-16.02c.2-.35.2-.78 0-1.13l-9.25-16.02c-.2-.35-.57-.56-.98-.56z" stroke="#1A1A1A"/><path d="M50.6 256.68l-17.05 17.06-11.37-11.37" stroke="#231F20"/><path clip-rule="evenodd" d="M308.98 298.23h-58.82a4.53 4.53 0 01-4.53-4.53v-58.83c0-2.5 2.03-4.53 4.53-4.53h58.82c2.5 0 4.53 2.03 4.53 4.53v58.83c0 2.5-2.03 4.53-4.53 4.53z" stroke="#B2B2B2"/><path d="M157.7 14.68V1.13M157.7 232.35v-33.38M157.7 277.6v31.94" stroke="#B2B2B2"/><path d="M269.39 254.1l20.36 20.37M289.75 254.1l-20.36 20.37" stroke="#231F20"/><path clip-rule="evenodd" d="M159.66 48.9l17.8-30.83c.87-1.5-.22-3.4-1.96-3.4h-35.6a2.26 2.26 0 00-1.96 3.4l17.8 30.84a2.26 2.26 0 003.92 0zM174.66 249.32a16.97 16.97 0 10-33.94 0 16.97 16.97 0 0033.94 0z" stroke="#1A1A1A"/></g></svg>