<svg width="254" height="350" fill="none" xmlns="http://www.w3.org/2000/svg"><g stroke-width="2" stroke-linecap="round" stroke-linejoin="round"><path d="M169 49.1h50.3c1.1 0 2 1 2 2.1v247.6a2.1 2.1 0 01-2 2H34.7a2.1 2.1 0 01-2-2V51.2c0-1.1.9-2 2-2h50.4" stroke="#000"/><path d="M1.1 300.9v-257a26.2 26.2 0 0126.3-26.2H127M252.8 49v257a26.2 26.2 0 01-26.2 26.2H127" stroke="#B2B2B2"/><path d="M169 59.6h41.9V259l-15.7 15.7-15.8 15.8H43.1V59.6h42" stroke="#B2B2B2"/><path clip-rule="evenodd" d="M154.3 70.1H99.7a4.2 4.2 0 01-4.2-4.2V43a4.2 4.2 0 014.2-4.2h54.6a4.2 4.2 0 014.2 4.2v23a4.2 4.2 0 01-4.2 4.2z" stroke="#000"/><path d="M179.4 290.4v-31.5H211" stroke="#B2B2B2"/><path clip-rule="evenodd" d="M169 138.3a42 42 0 10-84 0 42 42 0 0084 0z" stroke="#231F20"/><path d="M146.6 129.9l-23.5 23.5-15.7-15.7" stroke="#231F20"/><path d="M85 201.2h84m-84 21h84m-84 21h84M99.6 2L127 17.7m0 314.6l27.3 15.7" stroke="#B2B2B2"/></g></svg>