<svg width="169" height="59" fill="none" xmlns="http://www.w3.org/2000/svg"><mask id="a" maskUnits="userSpaceOnUse" x="23" y="49" width="10" height="10"><path fill-rule="evenodd" clip-rule="evenodd" d="M23.9 49.9h8.5v9h-8.5v-9z" fill="#fff"/></mask><g mask="url(#a)"><path fill-rule="evenodd" clip-rule="evenodd" d="M32.4 51.9l-1.6.9a2.7 2.7 0 00-2.3-1.2 2.7 2.7 0 00-2.8 2.8c0 1.8 1.3 2.9 2.8 2.9 1 0 1.8-.4 2.4-1.2l1.4 1a4.5 4.5 0 01-3.8 1.9c-2.7 0-4.6-2-4.6-4.6 0-2.6 1.9-4.5 4.6-4.5 1.7 0 3.1.7 3.9 2z" fill="#7F7F7F"/></g><path fill-rule="evenodd" clip-rule="evenodd" d="M38.5 59h-1.8v-3.8L33 49.4h2.2l2.3 4 2.3-4h2l-3.4 5.8V59zM45.8 57.3h1.9c.9 0 1.4-.2 1.4-1.2 0-.9-.5-1.1-1.4-1.1h-1.9v2.3zm0-4h1.7c.8 0 1.5-.2 1.5-1.1 0-.9-.7-1.1-1.5-1.1h-1.7v2.2zm4.9-1.2c0 1-.6 1.7-1.2 2 .7.3 1.3 1.1 1.3 2.1 0 1.9-1 2.8-3 2.8h-3.6v-9.6h3.3c2 0 3.2.8 3.2 2.7zM54.5 59v-9.6h6.6v1.8h-4.8v2h4.6V55h-4.6v2.2H61V59h-6.6zM66.5 53.5h1.8c1 0 1.4-.4 1.4-1.2 0-.8-.5-1.1-1.4-1.1h-1.8v2.3zm5-1.2c0 1.6-1 2.7-2.6 2.8l2.6 3.9h-2L67 55.2h-.5V59h-1.7v-9.6h3.6c2 0 3 1 3 3zM77.6 51.1c-1 0-1.7.4-1.7 1.1 0 .7.7 1 1.8 1l.5.2c1.6.2 2.8 1 2.8 2.6 0 2-1.7 3-3.6 3a6 6 0 01-3.7-1.2l.9-1.5c.6.5 1.7 1 2.8 1 1 0 1.7-.4 1.7-1.1 0-.7-.6-.9-1.8-1.1l-.6-.1c-1.6-.3-2.7-1-2.7-2.7 0-1.9 1.6-2.9 3.5-2.9a6 6 0 013.4 1l-.8 1.5c-.7-.4-1.6-.8-2.5-.8zM84 59v-9.6h6.6v1.8h-4.9v2h4.6V55h-4.6v2.2h5V59H84z" fill="#7F7F7F"/><mask id="b" maskUnits="userSpaceOnUse" x="93" y="49" width="9" height="10"><path fill-rule="evenodd" clip-rule="evenodd" d="M93.2 49.9h8.3v9h-8.3v-9z" fill="#fff"/></mask><g mask="url(#b)"><path fill-rule="evenodd" clip-rule="evenodd" d="M101.5 51.9l-1.5.9a2.6 2.6 0 00-2.2-1.2c-1.6 0-2.8 1.1-2.8 2.8 0 1.8 1.2 2.9 2.8 2.9 1 0 1.7-.4 2.2-1.2l1.5 1c-.8 1.2-2.1 1.9-3.7 1.9-2.7 0-4.6-2-4.6-4.6 0-2.6 1.9-4.5 4.6-4.5 1.6 0 3 .7 3.7 2z" fill="#7F7F7F"/></g><path fill-rule="evenodd" clip-rule="evenodd" d="M108.3 59c-2.2 0-3.7-1.3-3.7-4v-5.6h1.7V55c0 1.5.8 2.2 2 2.2s2-.7 2-2.2v-5.6h1.7v5.7c0 2.6-1.5 3.9-3.7 3.9zM117.3 53.5h1.9c.9 0 1.4-.4 1.4-1.2 0-.8-.5-1.1-1.4-1.1h-1.9v2.3zm5-1.2c0 1.6-1 2.7-2.6 2.8l2.6 3.9h-2l-2.5-3.8h-.5V59h-1.6v-9.6h3.5c2 0 3 1 3 3z" fill="#7F7F7F"/><mask id="c" maskUnits="userSpaceOnUse" x="0" y="0" width="169" height="59"><path fill-rule="evenodd" clip-rule="evenodd" d="M0 59h168.7V.8H0V59z" fill="#fff"/></mask><g mask="url(#c)" fill-rule="evenodd" clip-rule="evenodd" fill="#7F7F7F"><path d="M125.2 59h1.5v-9.6h-1.5V59zM134.2 51.2V59h-1.8v-7.8h-2.8v-1.8h7.4v1.8h-2.8zM143.1 59h-1.8v-3.8l-3.6-5.8h2.2l2.3 4 2.3-4h2l-3.4 5.8V59zM18.2 15.8l-2-.3c-4.3-.7-7.4-1.5-7.4-4 0-2.7 2.9-4.3 6.8-4.3 3.5 0 6.5 1 9.2 2.5L29 4.5A25.3 25.3 0 0015.5.8C7.9.8 1.3 4.6 1.3 11.8c0 6.4 4.6 9 10.9 10l2.2.4c5 .8 7.5 1.7 7.5 4 0 2.8-3 4.3-7 4.3-4.2 0-8-1.5-10.6-3.3L0 32.3A25 25 0 0015 37c7.6 0 14.5-3.7 14.5-11.4 0-6-5-8.7-11.3-9.7zM50.2 18.8l15-17.3h-9L44.4 16H41V1.5H34V37H41V22.4h3.3L57 36.9h9.3L50.2 18.8zM129.3 1.5v21c0 5.8-3.3 8.4-8.1 8.4s-8.1-2.6-8.1-8.4v-21h-7v21.3c0 9.8 6.2 14.8 15 14.8 9 0 15.2-5 15.2-14.8V1.5h-7zM140 1.5v6.6h10.8V37h7V8h10.9V1.5H140z"/><path d="M82.9 29.9a11 11 0 110-22 11 11 0 010 22zm0-29a18 18 0 100 36 18 18 0 000-36z"/></g></svg>