<svg width="248" height="42" xmlns="http://www.w3.org/2000/svg"><path d="M191.892 32.46h2.552V11.404h-2.552V32.46zM123.798 6.977h9.708v25.482h6.246V6.977h9.708V1.14h-25.662v5.836zm39.029-3.247h11.278v28.73h2.73V3.73h11.299V1.134h-25.307V3.73zm77.484 17.094l-2.686-.312c-3.244-.381-4.788-1.432-4.788-3.402 0-2.394 2.305-3.803 5.594-3.803 2.931 0 5.728 1.095 7.138 2.102l1.095-1.968c-1.901-1.365-4.922-2.372-8.255-2.372-4.856 0-8.19 2.327-8.19 6.175 0 2.998 2.059 5.08 6.824 5.617l2.708.29c3.245.359 4.856 1.522 4.856 3.49 0 2.619-2.618 3.939-6.422 3.939-3.625 0-5.862-1.096-7.496-2.371l-1.186 1.9c2.439 1.88 5.594 2.687 8.659 2.687 5.415 0 9.063-2.305 9.063-6.311 0-3.334-2.506-5.146-6.914-5.661zm-47.143-18.84c-1.051 0-1.813.806-1.813 1.857 0 1.052.762 1.813 1.813 1.813s1.834-.761 1.834-1.813c0-1.051-.783-1.857-1.834-1.857zM215.14 30.4c-4.744 0-8.19-3.624-8.19-8.458 0-4.833 3.446-8.48 8.19-8.48 4.81 0 8.211 3.736 8.211 8.48 0 4.767-3.378 8.458-8.211 8.458zm.29-19.332c-3.826 0-6.623 1.746-8.301 4.34v-4.005h-2.551V41.41h2.551V28.454c1.7 2.619 4.475 4.342 8.301 4.342 5.908 0 10.539-4.587 10.539-10.853 0-6.264-4.631-10.874-10.539-10.874zM57.565 1.14h-7.831L39.379 13.826h-2.952V1.14h-6.246v31.318h6.246V19.575h2.884l11.143 12.884h8.099L44.432 16.418 57.565 1.14zm56.844 18.503c0 5.12-2.933 7.402-7.227 7.402-4.295 0-7.223-2.281-7.223-7.402V1.14h-6.264v18.813c0 8.658 5.525 13.065 13.487 13.065 7.968 0 13.492-4.407 13.492-13.065V1.14h-6.265v18.503zM73.29 26.736a9.934 9.934 0 01-9.936-9.937c0-5.483 4.447-9.937 9.936-9.937 5.484 0 9.931 4.454 9.931 9.937 0 5.49-4.447 9.937-9.931 9.937zm0-26.177c-8.974 0-16.246 7.272-16.246 16.24 0 8.969 7.272 16.24 16.246 16.24 8.969 0 16.241-7.271 16.241-16.24 0-8.968-7.272-16.24-16.241-16.24zm-57.255 13.49l-1.765-.291c-3.76-.603-6.464-1.342-6.464-3.623 0-2.375 2.505-3.761 5.991-3.761 3.059 0 5.756.908 8.062 2.182l3.772-4.618C21.672 1.588 18.074.6 13.667.6 6.998.6 1.181 4 1.181 10.53c0 5.688 4.027 8.08 9.553 8.976l1.988.31c4.363.715 6.65 1.499 6.65 3.674 0 2.41-2.666 3.779-6.153 3.779-3.747 0-7.146-1.362-9.44-2.977L0 28.929c3.356 2.704 8.428 4.09 13.195 4.09 6.737 0 12.822-3.313 12.822-10.2 0-5.438-4.363-7.874-9.982-8.77z" fill="#B2B2B2" fill-rule="evenodd"/></svg>